<svg width="44" height="44" viewBox="0 0 44 44" fill="none" xmlns="http://www.w3.org/2000/svg">
<path d="M7.77927 29.1578C5.8672 31.0698 5.8672 34.177 7.77927 36.095C9.69134 38.0071 12.7984 38.0071 14.7165 36.095C16.6345 34.1829 16.6345 31.0758 14.7165 29.1578C12.8044 27.2397 9.69731 27.2397 7.77927 29.1578Z" fill="black"/>
<path d="M35.5168 29.1578C33.6047 27.2397 30.4976 27.2397 28.5796 29.1578C26.6675 31.0698 26.6675 34.177 28.5796 36.095C30.4916 38.0071 33.5987 38.0071 35.5168 36.095C37.4348 34.1829 37.4348 31.0758 35.5168 29.1578Z" fill="black"/>
<path d="M35.5168 15.2893C37.4348 13.3773 37.4348 10.2702 35.5168 8.35211C33.6047 6.43406 30.4976 6.43406 28.5796 8.35211C26.6675 10.2642 26.6675 13.3713 28.5796 15.2893C30.4916 17.2014 33.5987 17.2014 35.5168 15.2893Z" fill="black"/>
<path d="M14.7111 15.2893C16.6292 13.3773 16.6292 10.2702 14.7111 8.35211C12.7991 6.43406 9.69194 6.43406 7.7739 8.35211C5.86183 10.2642 5.86183 13.3713 7.7739 15.2893C9.68596 17.2014 12.7931 17.2014 14.7111 15.2893Z" fill="black"/>
<path d="M11.2451 18.7549C9.33302 20.667 9.33302 23.7741 11.2451 25.6922C13.1572 27.6102 16.2643 27.6042 18.1823 25.6922C20.1004 23.7801 20.1004 20.673 18.1823 18.7549C16.2702 16.8369 13.1631 16.8369 11.2451 18.7549Z" fill="black"/>
<path d="M8.37128 25.6922C10.2833 23.7801 10.2833 20.673 8.37128 18.7549C6.45323 16.8369 3.3521 16.8369 1.43405 18.7549C-0.478017 20.667 -0.478017 23.7741 1.43405 25.6922C3.34612 27.6042 6.45323 27.6042 8.37128 25.6922Z" fill="black"/>
<path d="M25.1135 25.6924C23.2014 23.7803 20.0943 23.7803 18.1762 25.6924C16.2642 27.6104 16.2642 30.7115 18.1762 32.6296C19.1323 33.5856 20.3871 34.0636 21.6419 34.0636C22.8967 34.0636 24.1514 33.5856 25.1075 32.6296C27.0255 30.7175 27.0255 27.6104 25.1075 25.6924H25.1135Z" fill="black"/>
<path d="M18.1761 42.4343C20.0882 44.3463 23.1953 44.3463 25.1133 42.4343C27.0314 40.5222 27.0314 37.4151 25.1133 35.497C24.1573 34.541 22.9025 34.063 21.6477 34.063C20.3929 34.063 19.1381 34.541 18.1821 35.497C16.27 37.4091 16.27 40.5162 18.1821 42.4343H18.1761Z" fill="black"/>
<path d="M25.1135 2.01218C23.2014 0.100108 20.0943 0.100108 18.1762 2.01218C16.2642 3.93022 16.2642 7.03136 18.1762 8.9494C19.1323 9.90544 20.3871 10.3835 21.6419 10.3835C22.8967 10.3835 24.1514 9.90544 25.1075 8.9494C27.0255 7.03733 27.0255 3.93022 25.1075 2.01218H25.1135Z" fill="black"/>
<path d="M18.1761 18.7556C20.0882 20.6676 23.1953 20.6676 25.1133 18.7556C27.0314 16.8435 27.0314 13.7364 25.1133 11.8183C24.1573 10.8623 22.9025 10.3843 21.6477 10.3843C20.3929 10.3843 19.1381 10.8623 18.1821 11.8183C16.27 13.7304 16.27 16.8375 18.1821 18.7556H18.1761Z" fill="black"/>
<path d="M25.1142 18.7549C23.2022 20.667 23.2022 23.7741 25.1142 25.6922C27.0263 27.6042 30.1334 27.6042 32.0515 25.6922C33.9635 23.7801 33.9635 20.673 32.0515 18.7549C30.1334 16.8369 27.0323 16.8369 25.1142 18.7549Z" fill="black"/>
<path d="M34.9243 25.6922C36.8364 27.6042 39.9435 27.6042 41.8615 25.6922C43.7795 23.7801 43.7795 20.673 41.8615 18.7549C39.9494 16.8369 36.8423 16.8369 34.9243 18.7549C33.0122 20.667 33.0122 23.7741 34.9243 25.6922Z" fill="black"/>
</svg>
